<?xml version="1.0" standalone="no"?>
<!DOCTYPE svg PUBLIC "-//W3C//DTD SVG 20010904//EN"
 "http://www.w3.org/TR/2001/REC-SVG-20010904/DTD/svg10.dtd">
<svg version="1.0" xmlns="http://www.w3.org/2000/svg"
 width="833.000000pt" height="833.000000pt" viewBox="0 0 833.000000 833.000000"
 preserveAspectRatio="xMidYMid meet">
<metadata>
Created by potrace 1.15, written by Peter Selinger 2001-2017
</metadata>
<g transform="translate(0.000000,833.000000) scale(0.100000,-0.100000)" stroke="none">
<path fill="#b53a1b" d="M0 4045 l0 -2535 1985 0 1985 0 0 455 0 455 -1410 0 -1410 0 0 590 0
590 1285 0 1285 0 0 475 0 475 -1285 0 -1285 0 0 545 0 545 1375 0 1375 0 0
470 0 470 -1950 0 -1950 0 0 -2535z"/>
<path fill="#000000" d="M4580 4045 l0 -2535 1875 0 1875 0 0 455 0 455 -1295 0 -1295 0 0
2080 0 2080 -580 0 -580 0 0 -2535z"/>
</g>
</svg>
